<svg width="226" height="250" viewBox="0 0 226 250" fill="none" xmlns="http://www.w3.org/2000/svg">
<g clip-path="url(#clip0_64_751)">
<path d="M221.122 192.887L170.868 201.561L170.756 200.912C183.912 198.641 195.629 191.253 203.331 180.373C211.032 169.493 214.087 156.012 211.823 142.896L205.788 107.929L206.439 107.817L221.122 192.887Z" fill="#F2F2F2"/>
<path d="M62.1884 90.1723C60.94 90.9103 59.6501 91.5759 58.3249 92.1658C56.5714 92.9264 55.5736 93.3109 53.689 92.9323C53.6228 92.919 53.5595 92.9055 53.4996 92.8918C49.9061 92.0503 46.6364 90.1849 44.0887 87.5229C41.5409 84.8608 39.825 81.5168 39.1496 77.898C39.1193 77.7751 39.0967 77.6443 39.0747 77.5166C38.9668 76.9021 38.8903 76.2826 38.8452 75.6603C38.7788 74.8136 38.7697 73.9633 38.8181 73.1152L38.7999 73.1151C37.1179 71.9038 36.2228 70.0014 36.0589 67.9629C35.9491 66.5807 36.1553 65.1913 36.662 63.8995C37.1688 62.6077 37.9628 61.4471 38.9843 60.5052C40.5914 59.0646 42.4998 57.9989 44.5709 57.3855C45.1272 57.2223 45.6924 57.0907 46.2637 56.9915L51.6317 56.065C52.6957 55.6148 53.7914 55.2434 54.91 54.9537L54.9188 54.9522C65.5684 52.194 75.3209 57.8644 76.0259 66.6899C76.0216 66.7005 76.0145 66.7116 76.0102 66.7222C75.8451 67.1351 75.7032 67.5243 75.582 67.8935C75.4629 68.2394 75.3681 68.5679 75.2911 68.8769C74.6885 71.2678 85.3207 104.914 83.7305 105.727C82.8252 106.189 74.5447 81.2158 76.0777 85.9718C78.0046 91.9381 66.849 87.4789 62.1884 90.1723Z" fill="#2F2E41"/>
<path d="M89.2139 149.648L109.68 178.872L51.0666 182.999L57.8218 150.386L89.2139 149.648Z" fill="#FFB6B6"/>
<path d="M130.285 208.236C120.841 213.289 110.527 216.521 99.8847 217.762L94.021 211.141C94.021 211.141 94.3055 213.935 94.7476 218.204C89.6291 218.491 84.4953 218.299 79.4136 217.631C69.7755 216.358 60.4397 213.419 51.046 210.845C47.4801 200.687 44.0353 184.67 52.146 173.599L106.178 174.128C106.178 174.128 115.664 178.944 113.803 181.577C111.941 184.207 111.533 183.92 113.265 185.137C114.996 186.355 118.528 187.773 118.783 189.055C118.882 189.556 124.038 198.056 130.285 208.236Z" fill="#2F2E41"/>
<path d="M69.4579 89.7592L56.955 92.8236L50.1358 102.115L47.3592 103.12C44.8633 104.022 42.7852 105.806 41.519 108.133C40.2529 110.46 39.8866 113.168 40.4898 115.745C42.7969 125.596 46.683 140.24 50.2732 144.589C55.8401 151.333 58.9666 148.376 55.8401 151.333C52.7137 154.29 50.0243 152.854 52.2916 156.283C54.5588 159.712 51.5542 165.131 51.5542 165.131L50.2933 166.912L52.0226 167.293L104.646 165.087C104.646 165.087 96.7523 145.905 98.6897 140.523C100.627 135.142 104.819 119.163 97.7953 114.406L88.3401 94.7607L77.6962 93.5305L69.4579 89.7592Z" fill="#38BDF8"/>
<path d="M160.197 158.42C159.345 158.539 158.478 158.473 157.655 158.225C156.832 157.977 156.073 157.554 155.431 156.985C154.789 156.416 154.278 155.714 153.934 154.929C153.591 154.143 153.422 153.292 153.441 152.435L126.483 140.3L128.024 132.036L159.936 146.683C161.38 146.82 162.724 147.481 163.711 148.54C164.699 149.599 165.262 150.984 165.294 152.43C165.327 153.877 164.825 155.286 163.886 156.39C162.946 157.494 161.634 158.216 160.197 158.42Z" fill="#FFB6B6"/>
<path d="M79.0849 95.3533L75.8156 97.3438L100.821 130.556L144.109 150.199L148.07 139.825L114.194 119.517L98.4899 98.9782C96.2799 96.0877 93.0733 94.1175 89.4894 93.448C85.9056 92.7786 82.1988 93.4573 79.0849 95.3533Z" fill="#38BDF8"/>
<path d="M61.9187 87.7599C68.9368 86.5486 73.647 79.8944 72.4393 72.8974C71.2316 65.9004 64.5633 61.2102 57.5453 62.4215C50.5273 63.6328 45.817 70.287 47.0247 77.284C48.2324 84.281 54.9007 88.9712 61.9187 87.7599Z" fill="#FFB6B6"/>
<path d="M69.8576 67.826C69.665 67.974 69.4737 68.1128 69.2795 68.252C69.077 68.3958 68.8746 68.5395 68.6681 68.6779C64.7472 71.3337 61.3203 72.1458 58.7419 69.7445C58.4334 68.3003 57.8581 66.9262 57.0454 65.6923C57.4057 67.1657 57.2675 68.7171 56.6524 70.1052L52.4203 70.8356C48.5596 74.4722 46.7802 77.5078 51.4399 86.4542C51.7444 87.0422 56.9098 108.909 57.5885 110.542C50.5548 109.157 40.2388 83.3475 38.8761 76.3128C38.8475 76.1999 38.8267 76.0796 38.8065 75.9622C38.7071 75.397 38.6391 74.8267 38.6026 74.2539C38.5477 73.4729 38.5501 72.6888 38.6098 71.9079L38.5916 71.908C37.8098 71.384 37.1618 70.685 36.6991 69.8668C36.2364 69.0486 35.9718 68.1337 35.9264 67.1951C36.7839 65.5591 37.9424 64.0983 39.3413 62.8891C40.6426 61.9588 42.0266 61.1494 43.476 60.4713C43.5128 60.4559 43.5436 60.4415 43.5804 60.4261C44.0236 60.2197 44.4806 60.023 44.9402 59.8409C45.8872 59.4659 46.8547 59.1446 47.838 58.8784C47.9111 58.8628 47.9807 58.8447 48.0455 58.8335C48.4453 58.7648 48.8562 58.8045 49.2352 58.9485C49.2381 58.948 49.2386 58.9509 49.2445 58.9499C49.6088 59.0897 49.9309 59.3207 50.1796 59.6207C50.4283 59.9207 50.5953 60.2796 50.6645 60.6628L55.3792 59.849C55.5528 59.8191 55.7275 59.795 55.9026 59.7738C62.5135 58.9017 68.2735 60.7901 69.7226 67.1664C69.7758 67.3868 69.8191 67.603 69.8576 67.826Z" fill="#2F2E41"/>
<path d="M42.0715 73.1463C46.695 72.3483 49.7981 67.9645 49.0025 63.3548C48.2069 58.7452 43.8138 55.6552 39.1902 56.4532C34.5667 57.2512 31.4636 61.635 32.2592 66.2447C33.0548 70.8544 37.4479 73.9444 42.0715 73.1463Z" fill="#2F2E41"/>
<path d="M51.4579 58.9555C51.2855 63.6307 47.0588 67.1387 42.3792 66.8098C40.132 66.6519 38.0407 65.6102 36.5652 63.9139C35.0898 62.2176 34.3512 60.0056 34.5118 57.7646C34.8463 53.0979 40.517 53.4479 43.5905 49.9103C47.9384 44.9058 51.6905 52.6505 51.4579 58.9555Z" fill="#2F2E41"/>
<path d="M54.5308 187.737C56.6589 157.497 66.4926 130.123 86.5341 106.546C87.1837 104.904 88.4599 103.584 90.0828 102.878C91.7056 102.171 93.5426 102.136 95.1906 102.778L156.657 126.818C158.304 127.464 159.625 128.735 160.332 130.353C161.039 131.97 161.073 133.802 160.427 135.446C156.629 166.755 147.702 194.895 128.424 216.637C127.775 218.28 126.498 219.599 124.876 220.305C123.253 221.012 121.416 221.048 119.768 220.405L58.3011 196.366C56.6545 195.719 55.3329 194.448 54.626 192.831C53.9192 191.213 53.885 189.381 54.5308 187.737Z" fill="#F2F2F2"/>
<path opacity="0.2" d="M66.1112 195.806C64.4646 195.16 63.1429 193.889 62.4361 192.271C61.7293 190.654 61.6951 188.822 62.341 187.178C64.469 156.937 74.3028 129.563 94.3441 105.987C94.776 104.91 95.4853 103.967 96.4001 103.251L95.1905 102.778C93.5425 102.135 91.7056 102.171 90.0828 102.878C88.4599 103.584 87.1837 104.903 86.534 106.546C66.4926 130.122 56.6589 157.496 54.5309 187.737C53.885 189.381 53.9192 191.213 54.626 192.83C55.3328 194.448 56.6545 195.719 58.301 196.365L119.768 220.405C120.861 220.828 122.047 220.956 123.206 220.775C124.365 220.593 125.456 220.11 126.368 219.373L66.1112 195.806Z" fill="black"/>
<path d="M128.588 168.333L87.353 152.337C86.6977 152.082 86.171 151.578 85.8886 150.935C85.6062 150.293 85.5912 149.564 85.8469 148.91C86.1026 148.256 86.6081 147.73 87.2523 147.447C87.8966 147.164 88.6269 147.147 89.2828 147.401L130.518 163.396C131.172 163.652 131.697 164.157 131.978 164.799C132.26 165.441 132.274 166.168 132.019 166.821C131.764 167.474 131.259 168 130.616 168.283C129.973 168.567 129.243 168.584 128.588 168.333Z" fill="white"/>
<path d="M101.716 142.321L92.6448 138.802C91.9878 138.549 91.4586 138.047 91.1736 137.405C90.8885 136.763 90.871 136.034 91.1248 135.379C91.3787 134.723 91.8831 134.195 92.5271 133.91C93.1712 133.625 93.9021 133.607 94.5591 133.86L94.5747 133.866L103.646 137.385C104.3 137.641 104.826 138.145 105.107 138.787C105.389 139.429 105.404 140.156 105.148 140.81C104.893 141.463 104.388 141.989 103.745 142.272C103.102 142.555 102.372 142.573 101.716 142.321Z" fill="white"/>
<path d="M124.346 179.183L83.1108 163.187C82.455 162.933 81.9275 162.43 81.6442 161.787C81.3609 161.145 81.345 160.417 81.6 159.762C81.8549 159.108 82.3599 158.581 83.004 158.297C83.6481 158.013 84.3785 157.996 85.0348 158.249L85.0407 158.251L126.276 174.247C126.93 174.503 127.455 175.007 127.736 175.649C128.018 176.291 128.032 177.018 127.777 177.671C127.521 178.325 127.017 178.85 126.374 179.134C125.731 179.417 125.001 179.435 124.346 179.183Z" fill="white"/>
<path d="M126.028 125.195C132.055 124.155 136.1 118.44 135.063 112.432C134.026 106.423 128.299 102.395 122.273 103.435C116.246 104.476 112.201 110.19 113.238 116.199C114.275 122.207 120.002 126.235 126.028 125.195Z" fill="#3F3D56"/>
<path d="M125.462 234.141C138.343 231.918 146.989 219.705 144.772 206.862C142.555 194.019 130.316 185.411 117.435 187.634C104.553 189.857 95.908 202.071 98.1247 214.913C100.341 227.756 112.581 236.365 125.462 234.141Z" fill="white"/>
<path d="M125.518 234.466C120.841 235.273 116.03 234.68 111.693 232.76C107.357 230.84 103.69 227.681 101.157 223.682C98.6233 219.682 97.3367 215.022 97.4598 210.291C97.5829 205.56 99.1101 200.97 101.848 197.102C104.586 193.233 108.413 190.261 112.843 188.559C117.274 186.857 122.109 186.504 126.738 187.542C131.368 188.581 135.583 190.966 138.851 194.394C142.119 197.823 144.292 202.142 145.097 206.806C146.169 213.058 144.71 219.482 141.039 224.667C137.369 229.853 131.787 233.377 125.518 234.466ZM117.491 187.958C112.942 188.743 108.728 190.856 105.381 194.028C102.033 197.2 99.7037 201.29 98.6862 205.78C97.6686 210.271 98.009 214.96 99.6641 219.254C101.319 223.549 104.215 227.257 107.985 229.908C111.754 232.56 116.229 234.036 120.843 234.151C125.457 234.266 130.003 233.013 133.906 230.553C137.809 228.092 140.893 224.533 142.769 220.326C144.646 216.119 145.229 211.453 144.447 206.918C143.39 200.84 139.959 195.431 134.906 191.876C129.852 188.322 123.589 186.913 117.491 187.958Z" fill="#3F3D56"/>
<path d="M120.355 223.539C119.953 223.609 119.539 223.584 119.148 223.466C118.757 223.349 118.398 223.142 118.101 222.863L110.278 215.502C110.027 215.266 109.824 214.982 109.683 214.668C109.541 214.353 109.463 214.014 109.453 213.669C109.443 213.324 109.501 212.981 109.624 212.658C109.748 212.336 109.933 212.041 110.171 211.79C110.408 211.539 110.693 211.337 111.009 211.196C111.324 211.054 111.665 210.977 112.011 210.967C112.356 210.956 112.701 211.015 113.024 211.137C113.347 211.26 113.643 211.445 113.894 211.682L119.012 216.497L126.944 198.662C127.084 198.347 127.285 198.062 127.536 197.824C127.786 197.586 128.081 197.4 128.404 197.275C128.726 197.151 129.07 197.091 129.416 197.1C129.761 197.108 130.102 197.184 130.418 197.323C130.734 197.463 131.019 197.663 131.258 197.913C131.496 198.162 131.683 198.456 131.807 198.778C131.931 199.099 131.991 199.442 131.982 199.787C131.974 200.131 131.897 200.471 131.757 200.786L122.316 222.015C122.145 222.399 121.884 222.736 121.556 222.999C121.227 223.262 120.84 223.443 120.427 223.526C120.403 223.531 120.379 223.535 120.355 223.539Z" fill="#38BDF8"/>
<path d="M176.433 80.0473C177.347 79.8083 177.952 79.1012 177.786 78.4679C177.62 77.8346 176.745 77.5149 175.832 77.7539C174.919 77.9929 174.313 78.7 174.479 79.3333C174.645 79.9666 175.52 80.2863 176.433 80.0473Z" fill="white"/>
<path d="M186.253 74.7205C187.166 74.4816 187.771 73.7744 187.605 73.1411C187.439 72.5078 186.564 72.1882 185.651 72.4272C184.738 72.6661 184.132 73.3733 184.298 74.0066C184.464 74.6399 185.339 74.9595 186.253 74.7205Z" fill="#3F3D56"/>
<path d="M170.121 72.9684C171.034 72.7294 171.64 72.0223 171.474 71.389C171.308 70.7557 170.433 70.436 169.52 70.675C168.607 70.914 168.001 71.6211 168.167 72.2544C168.333 72.8877 169.208 73.2074 170.121 72.9684Z" fill="#FF6584"/>
<path d="M165.306 71.1674C165.689 71.0087 165.815 70.4347 165.587 69.8854C165.358 69.336 164.863 69.0193 164.479 69.178C164.096 69.3368 163.97 69.9108 164.198 70.4601C164.427 71.0095 164.922 71.3261 165.306 71.1674Z" fill="#E6E6E6"/>
<path d="M161.12 65.4999C161.504 65.3412 161.63 64.7672 161.401 64.2179C161.173 63.6685 160.677 63.3519 160.294 63.5106C159.911 63.6693 159.785 64.2433 160.013 64.7926C160.241 65.342 160.737 65.6586 161.12 65.4999Z" fill="#3F3D56"/>
<path d="M177.567 71.6349C177.95 71.4762 178.076 70.9022 177.847 70.3529C177.619 69.8035 177.123 69.4869 176.74 69.6456C176.357 69.8043 176.231 70.3783 176.459 70.9276C176.687 71.477 177.183 71.7937 177.567 71.6349Z" fill="#E6E6E6"/>
<path d="M173.662 76.1909C174.046 76.0322 174.172 75.4582 173.943 74.9088C173.715 74.3595 173.219 74.0428 172.836 74.2015C172.453 74.3602 172.327 74.9342 172.555 75.4836C172.783 76.0329 173.279 76.3496 173.662 76.1909Z" fill="#FF6584"/>
<path d="M182.484 77.8302C182.868 77.6715 182.993 77.0975 182.765 76.5482C182.537 75.9988 182.041 75.6821 181.658 75.8409C181.274 75.9996 181.149 76.5736 181.377 77.1229C181.605 77.6723 182.101 77.9889 182.484 77.8302Z" fill="#3F3D56"/>
<path d="M125.083 39.4128C125.134 38.7599 124.413 38.1722 123.472 38.1C122.531 38.0278 121.727 38.4985 121.676 39.1513C121.625 39.8042 122.346 40.3919 123.287 40.4641C124.228 40.5363 125.032 40.0656 125.083 39.4128Z" fill="white"/>
<path d="M114.06 41.2425C114.111 40.5897 113.389 40.002 112.448 39.9298C111.507 39.8576 110.703 40.3283 110.652 40.9811C110.601 41.6339 111.322 42.2217 112.263 42.2939C113.204 42.3661 114.009 41.8954 114.06 41.2425Z" fill="#3F3D56"/>
<path d="M128.722 48.1644C128.773 47.5116 128.051 46.9238 127.11 46.8516C126.169 46.7795 125.365 47.2501 125.314 47.903C125.263 48.5558 125.985 49.1435 126.926 49.2157C127.867 49.2879 128.671 48.8172 128.722 48.1644Z" fill="#FF6584"/>
<path d="M131.881 51.1559C131.846 50.5621 131.482 50.101 131.068 50.1258C130.653 50.1507 130.346 50.6522 130.381 51.246C130.417 51.8397 130.781 52.3009 131.195 52.276C131.61 52.2512 131.917 51.7497 131.881 51.1559Z" fill="#E6E6E6"/>
<path d="M133.974 57.8792C133.939 57.2854 133.575 56.8242 133.16 56.8491C132.746 56.874 132.439 57.3755 132.474 57.9693C132.51 58.563 132.874 59.0242 133.288 58.9993C133.702 58.9745 134.01 58.473 133.974 57.8792Z" fill="#3F3D56"/>
<path d="M120.454 46.7118C120.419 46.118 120.054 45.6569 119.64 45.6817C119.226 45.7066 118.918 46.2081 118.954 46.8019C118.989 47.3956 119.353 47.8568 119.768 47.8319C120.182 47.8071 120.489 47.3056 120.454 46.7118Z" fill="#E6E6E6"/>
<path d="M125.637 43.6798C125.602 43.086 125.237 42.6248 124.823 42.6497C124.409 42.6746 124.102 43.1761 124.137 43.7698C124.172 44.3636 124.537 44.8248 124.951 44.7999C125.365 44.775 125.672 44.2735 125.637 43.6798Z" fill="#FF6584"/>
<path d="M117.842 39.2505C117.807 38.6568 117.443 38.1956 117.029 38.2205C116.614 38.2453 116.307 38.7468 116.342 39.3406C116.378 39.9344 116.742 40.3955 117.156 40.3707C117.57 40.3458 117.878 39.8443 117.842 39.2505Z" fill="#3F3D56"/>
<path d="M16.0087 117.718L15.3579 117.831L0.674927 32.7608L50.9288 24.087L51.0408 24.7358C37.8853 27.0064 26.1678 34.3944 18.4661 45.2746C10.7645 56.1547 7.70962 69.6356 9.97346 82.7518L16.0087 117.718Z" fill="#F2F2F2"/>
<path d="M58.0544 187.446C57.1641 187.249 56.3274 186.863 55.6021 186.312C54.8768 185.762 54.2803 185.06 53.8537 184.257C53.4272 183.454 53.1808 182.567 53.1317 181.659C53.0825 180.751 53.2318 179.843 53.5691 178.998L31.3029 156.965L35.9064 149.319L62.1602 175.681C63.5442 176.352 64.6328 177.505 65.22 178.924C65.8071 180.342 65.8518 181.926 65.3458 183.377C64.8397 184.827 63.8179 186.042 62.4741 186.792C61.1302 187.542 59.5577 187.774 58.0544 187.446Z" fill="#FFB6B6"/>
<path d="M44.7227 107.746C43.7238 107.371 42.623 107.363 41.6179 107.724C40.6129 108.084 39.7693 108.791 39.2387 109.715L20.844 147.675L48.781 175.59L55.9421 164.666L38.5816 145.615L53.7672 125.241C54.697 121.724 54.2871 117.989 52.6167 114.758C50.9463 111.527 48.1339 109.029 44.7227 107.746Z" fill="#38BDF8"/>
</g>
<defs>
<clipPath id="clip0_64_751">
<rect width="190" height="220" fill="white" transform="translate(0.674927 32.7608) rotate(-9.79274)"/>
</clipPath>
</defs>
</svg>
