<svg width="366" height="265" viewBox="0 0 366 265" fill="none" xmlns="http://www.w3.org/2000/svg">
<g clip-path="url(#clip0_12_282)">
<path d="M300.035 3.04871C300.028 3.07332 300.021 3.09493 300.013 3.11954C299.997 3.16673 299.983 3.21497 299.973 3.26395C299.885 3.57808 299.837 3.90208 299.83 4.22827C299.826 4.36744 299.829 4.50673 299.841 4.64551C299.854 4.82357 299.88 5.0005 299.917 5.17509C299.956 5.36944 300.011 5.56038 300.08 5.74614C300.112 5.83441 300.147 5.92104 300.187 6.0057C300.445 6.58346 300.833 7.09355 301.321 7.49589C301.809 7.89822 302.383 8.18183 302.999 8.32442L303.002 8.32419C303.063 8.33981 303.124 8.35222 303.185 8.36138C303.529 8.42384 303.878 8.44172 304.226 8.4146L304.232 8.41415C305.081 8.34978 305.887 8.02017 306.538 7.47195C306.937 7.14088 306.98 6.7912 307.478 6.94634C309.066 7.44124 310.126 4.8229 309.333 3.38869C309.334 3.33463 309.332 3.28056 309.327 3.22673C309.251 2.22496 307.743 1.96958 306.865 1.43786L306.86 1.45559C306.819 1.61095 306.731 1.74958 306.607 1.85212C306.483 1.95466 306.331 2.01596 306.171 2.02746C306.01 2.03896 305.851 2.00008 305.714 1.91626C305.577 1.83244 305.469 1.70786 305.407 1.55995C305.246 1.17256 305.1 0.779857 304.969 0.38186C303.285 -0.832423 298.784 1.06485 300.035 3.04871Z" fill="#2F2E41"/>
<path d="M289.472 12.1396C289.243 12.6744 282.171 12.6171 281.847 13.0934C279.35 16.7703 288.352 32.4145 285.855 36.0962L285.507 36.5111C286.322 36.1354 287.104 35.6936 287.847 35.1901C287.914 33.6831 287.98 32.1713 288.052 30.6643C288.8 31.6219 289.404 32.6839 289.844 33.8166C290.425 33.4065 290.902 32.6462 293.394 31.1508C294.403 30.0417 295.566 29.0836 296.848 28.306L289.472 12.1396Z" fill="#2F2E41"/>
<path d="M294.608 42.2738C293.827 41.7651 292.937 41.4499 292.01 41.3545C291.084 41.259 290.148 41.3861 289.281 41.7251C288.413 42.064 287.639 42.6052 287.022 43.3036C286.405 44.002 285.964 44.8375 285.734 45.7408L274.988 73.7616L256.516 63.2671C256.435 62.0609 255.974 60.9113 255.199 59.9833C254.425 59.0553 253.377 58.3965 252.205 58.1014C251.034 57.8064 249.799 57.8903 248.678 58.341C247.557 58.7917 246.607 59.5861 245.965 60.6103C245.323 61.6345 245.022 62.8358 245.104 64.042C245.187 65.2481 245.649 66.3972 246.424 67.3243C247.2 68.2515 248.249 68.9091 249.42 69.2028C250.592 69.4965 251.827 69.4112 252.948 68.9593C256.838 73.114 273.703 90.1485 280.684 83.4927C286.553 77.8982 295.022 56.216 297.061 48.7286C297.387 47.5314 297.326 46.2613 296.885 45.1013C296.444 43.9413 295.647 42.9513 294.608 42.2738Z" fill="#A0616A"/>
<path d="M210.79 61.0353C205.708 47.5511 204.513 33.7834 208.468 19.64C208.422 18.8022 208.71 17.9802 209.268 17.3545C209.827 16.7288 210.611 16.3504 211.448 16.3024L242.689 14.5471C243.526 14.501 244.348 14.7891 244.973 15.3483C245.598 15.9075 245.976 16.692 246.024 17.5298L248.347 58.9251C248.393 59.763 248.105 60.5849 247.546 61.2106C246.987 61.8363 246.203 62.2147 245.366 62.2627L214.126 64.018C213.288 64.0641 212.467 63.776 211.842 63.2168C211.216 62.6576 210.838 61.873 210.79 61.0353Z" fill="#E6E6E6"/>
<path d="M212.485 48.3975C208.963 41.8827 209.455 32.2415 210.992 21.7849C210.949 21.0002 211.219 20.2304 211.742 19.6444C212.265 19.0584 212.999 18.7041 213.783 18.6592L240.632 17.1506C241.416 17.1074 242.185 17.3772 242.771 17.9009C243.357 18.4246 243.711 19.1594 243.756 19.944L245.823 56.7801C245.866 57.5648 245.596 58.3346 245.073 58.9206C244.549 59.5066 243.815 59.8609 243.031 59.9059L226.399 60.8404C222.906 61.0327 219.479 59.8307 216.871 57.498C214.263 55.1653 212.685 51.8925 212.485 48.3975Z" fill="white"/>
<path d="M226.012 53.4055C227.54 53.4055 228.778 52.1661 228.778 50.6373C228.778 49.1085 227.54 47.8691 226.012 47.8691C224.484 47.8691 223.246 49.1085 223.246 50.6373C223.246 52.1661 224.484 53.4055 226.012 53.4055Z" fill="#38BDF8"/>
<path d="M233.608 25.253C232.764 23.845 230.81 23.7192 229.17 23.756C227.478 23.7197 225.789 23.909 224.147 24.3191C222.527 24.8011 220.984 25.7874 220.202 27.2861C219.241 29.1284 219.579 31.3617 220.095 33.3745C221.089 37.2464 222.649 40.9503 224.723 44.3666L225.923 45.1871C228.378 42.9465 230.359 40.2371 231.752 37.2184C233.144 34.1997 233.919 30.9327 234.03 27.6099C234.115 26.8001 233.969 25.9829 233.608 25.253Z" fill="#38BDF8"/>
<path d="M56.6687 167.793C46.5133 129.848 48.1491 87.3186 56.6687 42.1134C56.67 40.9941 57.1149 39.9209 57.9058 39.1294C58.6968 38.3379 59.7692 37.8927 60.8877 37.8914H186.426C187.544 37.8927 188.617 38.3379 189.408 39.1294C190.199 39.9209 190.643 40.9941 190.645 42.1134V167.793C190.643 168.912 190.199 169.985 189.408 170.777C188.617 171.568 187.544 172.013 186.426 172.015H60.8877C59.7692 172.013 58.6968 171.568 57.9058 170.777C57.1149 169.985 56.67 168.912 56.6687 167.793Z" fill="#F2F2F2"/>
<path d="M57.4727 136.341C54.8941 105.896 55.5786 75.2625 59.5145 44.9635C59.5158 43.8442 59.9608 42.771 60.7517 41.9795C61.5427 41.188 62.615 40.7428 63.7336 40.7415H183.579C184.133 40.7415 184.682 40.8507 185.194 41.0629C185.706 41.2751 186.171 41.586 186.563 41.9781C186.954 42.3701 187.265 42.8356 187.477 43.3478C187.689 43.8601 187.798 44.4091 187.798 44.9635V164.945C187.798 166.064 187.354 167.138 186.563 167.93C185.771 168.722 184.698 169.167 183.579 169.167H93.1936C84.2115 169.172 75.555 165.801 68.9392 159.721C62.3234 153.642 58.231 145.297 57.4727 136.341Z" fill="white"/>
<path d="M134.208 64.4345H83.7513C83.6082 64.4348 83.4665 64.4068 83.3342 64.3523C83.2019 64.2977 83.0817 64.2175 82.9804 64.1164C82.8791 64.0152 82.7988 63.8951 82.7439 63.7628C82.6891 63.6306 82.6609 63.4888 82.6609 63.3456C82.6609 63.2024 82.6891 63.0607 82.7439 62.9284C82.7988 62.7961 82.8791 62.676 82.9804 62.5749C83.0817 62.4737 83.2019 62.3936 83.3342 62.339C83.4665 62.2844 83.6082 62.2564 83.7513 62.2567H134.208C134.496 62.2574 134.772 62.3723 134.976 62.5765C135.179 62.7806 135.294 63.0572 135.294 63.3456C135.294 63.634 135.179 63.9106 134.976 64.1148C134.772 64.3189 134.496 64.4339 134.208 64.4345Z" fill="#38BDF8"/>
<path d="M159.75 74.3893H83.7513C83.6082 74.3896 83.4665 74.3617 83.3342 74.3071C83.2019 74.2525 83.0817 74.1723 82.9804 74.0712C82.8791 73.9701 82.7988 73.8499 82.7439 73.7177C82.6891 73.5854 82.6609 73.4436 82.6609 73.3005C82.6609 73.1573 82.6891 73.0155 82.7439 72.8832C82.7988 72.751 82.8791 72.6308 82.9804 72.5297C83.0817 72.4285 83.2019 72.3484 83.3342 72.2938C83.4665 72.2392 83.6082 72.2113 83.7513 72.2116H159.75C160.038 72.2122 160.314 72.3272 160.518 72.5313C160.721 72.7354 160.836 73.0121 160.836 73.3005C160.836 73.5888 160.721 73.8655 160.518 74.0696C160.314 74.2737 160.038 74.3887 159.75 74.3893Z" fill="#F2F2F2"/>
<path d="M159.751 82.1648H83.7495C83.4607 82.1648 83.1838 82.2796 82.9795 82.484C82.7753 82.6883 82.6606 82.9655 82.6606 83.2545C82.6606 83.5435 82.7753 83.8207 82.9795 84.0251C83.1838 84.2294 83.4607 84.3442 83.7495 84.3442H159.751C160.04 84.3442 160.317 84.2294 160.521 84.0251C160.726 83.8207 160.84 83.5435 160.84 83.2545C160.84 82.9655 160.726 82.6883 160.521 82.484C160.317 82.2796 160.04 82.1648 159.751 82.1648Z" fill="#F2F2F2"/>
<path d="M159.75 94.299H83.7512C83.4627 94.299 83.1859 94.1842 82.9819 93.98C82.7778 93.7758 82.6631 93.4989 82.6631 93.2101C82.6631 92.9213 82.7778 92.6443 82.9819 92.4401C83.1859 92.2359 83.4627 92.1212 83.7512 92.1212H159.75C160.039 92.1212 160.315 92.2359 160.519 92.4401C160.723 92.6443 160.838 92.9213 160.838 93.2101C160.838 93.4989 160.723 93.7758 160.519 93.98C160.315 94.1842 160.039 94.299 159.75 94.299Z" fill="#F2F2F2"/>
<path d="M159.75 104.254H83.7513C83.6082 104.254 83.4665 104.226 83.3342 104.172C83.2019 104.117 83.0817 104.037 82.9804 103.936C82.8791 103.835 82.7988 103.714 82.7439 103.582C82.6891 103.45 82.6609 103.308 82.6609 103.165C82.6609 103.022 82.6891 102.88 82.7439 102.748C82.7988 102.615 82.8791 102.495 82.9804 102.394C83.0817 102.293 83.2019 102.213 83.3342 102.158C83.4665 102.104 83.6082 102.076 83.7513 102.076H159.75C160.038 102.077 160.314 102.192 160.518 102.396C160.721 102.6 160.836 102.877 160.836 103.165C160.836 103.453 160.721 103.73 160.518 103.934C160.314 104.138 160.038 104.253 159.75 104.254Z" fill="#F2F2F2"/>
<path d="M159.75 114.269H83.7513C83.6082 114.269 83.4665 114.241 83.3342 114.186C83.2019 114.132 83.0817 114.052 82.9804 113.951C82.8791 113.849 82.7988 113.729 82.7439 113.597C82.6891 113.465 82.6609 113.323 82.6609 113.18C82.6609 113.037 82.6891 112.895 82.7439 112.763C82.7988 112.63 82.8791 112.51 82.9804 112.409C83.0817 112.308 83.2019 112.228 83.3342 112.173C83.4665 112.119 83.6082 112.091 83.7513 112.091H159.75C160.038 112.092 160.314 112.207 160.518 112.411C160.721 112.615 160.836 112.891 160.836 113.18C160.836 113.468 160.721 113.745 160.518 113.949C160.314 114.153 160.038 114.268 159.75 114.269Z" fill="#F2F2F2"/>
<path d="M159.75 124.284H83.7513C83.6082 124.284 83.4665 124.256 83.3342 124.201C83.2019 124.147 83.0817 124.067 82.9804 123.965C82.8791 123.864 82.7988 123.744 82.7439 123.612C82.6891 123.48 82.6609 123.338 82.6609 123.195C82.6609 123.051 82.6891 122.91 82.7439 122.777C82.7988 122.645 82.8791 122.525 82.9804 122.424C83.0817 122.323 83.2019 122.243 83.3342 122.188C83.4665 122.133 83.6082 122.105 83.7513 122.106H159.75C160.038 122.106 160.314 122.221 160.518 122.426C160.721 122.63 160.836 122.906 160.836 123.195C160.836 123.483 160.721 123.76 160.518 123.964C160.314 124.168 160.038 124.283 159.75 124.284Z" fill="#F2F2F2"/>
<path d="M159.75 134.298H83.7513C83.6082 134.299 83.4665 134.271 83.3342 134.216C83.2019 134.162 83.0817 134.081 82.9804 133.98C82.8791 133.879 82.7988 133.759 82.7439 133.627C82.6891 133.495 82.6609 133.353 82.6609 133.21C82.6609 133.066 82.6891 132.925 82.7439 132.792C82.7988 132.66 82.8791 132.54 82.9804 132.439C83.0817 132.338 83.2019 132.257 83.3342 132.203C83.4665 132.148 83.6082 132.12 83.7513 132.121H159.75C160.038 132.121 160.314 132.236 160.518 132.44C160.721 132.645 160.836 132.921 160.836 133.21C160.836 133.498 160.721 133.775 160.518 133.979C160.314 134.183 160.038 134.298 159.75 134.298Z" fill="#F2F2F2"/>
<path d="M159.75 144.313H83.7513C83.6082 144.314 83.4665 144.286 83.3342 144.231C83.2019 144.176 83.0817 144.096 82.9804 143.995C82.8791 143.894 82.7988 143.774 82.7439 143.642C82.6891 143.509 82.6609 143.368 82.6609 143.224C82.6609 143.081 82.6891 142.939 82.7439 142.807C82.7988 142.675 82.8791 142.555 82.9804 142.454C83.0817 142.352 83.2019 142.272 83.3342 142.218C83.4665 142.163 83.6082 142.135 83.7513 142.136H159.75C160.038 142.136 160.314 142.251 160.518 142.455C160.721 142.659 160.836 142.936 160.836 143.224C160.836 143.513 160.721 143.789 160.518 143.994C160.314 144.198 160.038 144.313 159.75 144.313Z" fill="#F2F2F2"/>
<path d="M141.716 78.0034C138.377 76.8097 134.052 77.2753 131.709 80.1852C129.61 82.7916 129.358 86.9415 132.029 89.2675C135.28 92.099 139.782 91.0573 143.332 89.4599C146.58 87.9981 150.156 85.6413 150.105 81.6417C150.098 80.6137 149.845 79.6023 149.369 78.6913C148.893 77.7804 148.207 76.996 147.368 76.4033C146.516 75.8271 145.541 75.4596 144.521 75.3304C143.5 75.2012 142.464 75.3139 141.496 75.6595C140.639 75.9729 141.009 77.3561 141.876 77.039C142.574 76.7733 143.323 76.6668 144.067 76.7271C144.812 76.7874 145.534 77.013 146.18 77.3877C146.826 77.7623 147.381 78.2764 147.804 78.8927C148.227 79.5089 148.507 80.2117 148.624 80.95C149.125 84.2707 146.29 86.4215 143.655 87.7318C140.765 89.1693 137.085 90.5446 133.991 88.8931C131.344 87.4805 130.86 84.2584 132.327 81.7841C134.147 78.7163 138.243 78.2773 141.336 79.383C142.204 79.6933 142.577 78.3114 141.716 78.0034Z" fill="#38BDF8"/>
<path d="M96.919 98.0331C93.58 96.8394 89.2558 97.305 86.9124 100.215C84.8135 102.821 84.5617 106.971 87.2323 109.297C90.4833 112.129 94.9857 111.087 98.5354 109.49C101.784 108.028 105.359 105.671 105.309 101.671C105.301 100.643 105.049 99.632 104.573 98.7211C104.096 97.8101 103.41 97.0258 102.571 96.433C101.719 95.8569 100.744 95.4893 99.7238 95.3601C98.7038 95.2309 97.6677 95.3436 96.6993 95.6892C95.8421 96.0026 96.2123 97.3858 97.0793 97.0688C97.7775 96.8031 98.5261 96.6965 99.2706 96.7568C100.015 96.8171 100.737 97.0428 101.383 97.4174C102.03 97.792 102.584 98.3062 103.007 98.9224C103.43 99.5386 103.71 100.241 103.827 100.98C104.329 104.3 101.493 106.451 98.8585 107.762C95.9678 109.199 92.2887 110.574 89.1941 108.923C86.547 107.51 86.0629 104.288 87.5304 101.814C89.3499 98.746 93.4461 98.307 96.539 99.4127C97.407 99.723 97.7806 98.3412 96.919 98.0331Z" fill="#E6E6E6"/>
<path d="M141.239 138.093C137.9 136.899 133.576 137.365 131.233 140.274C129.134 142.881 128.882 147.031 131.552 149.357C134.803 152.188 139.306 151.147 142.856 149.549C146.104 148.087 149.679 145.731 149.629 141.731C149.621 140.703 149.369 139.692 148.893 138.781C148.417 137.87 147.731 137.085 146.891 136.493C146.039 135.916 145.064 135.549 144.044 135.42C143.024 135.29 141.988 135.403 141.019 135.749C140.162 136.062 140.533 137.445 141.4 137.128C142.098 136.863 142.846 136.756 143.591 136.816C144.335 136.877 145.057 137.102 145.703 137.477C146.35 137.852 146.905 138.366 147.327 138.982C147.75 139.598 148.03 140.301 148.147 141.039C148.649 144.36 145.814 146.511 143.179 147.821C140.288 149.258 136.609 150.634 133.514 148.982C130.867 147.57 130.383 144.348 131.851 141.873C133.67 138.806 137.766 138.367 140.859 139.472C141.727 139.783 142.101 138.401 141.239 138.093Z" fill="#E6E6E6"/>
<path d="M139.622 151.627C140.703 158.581 143.975 165.008 148.961 169.971C152.769 173.693 157.43 176.424 162.537 177.924C167.644 179.424 173.041 179.649 178.254 178.577C179.145 178.391 179.03 176.964 178.129 177.152C171.763 178.471 165.145 177.79 159.181 175.201C154.417 173.085 150.26 169.807 147.092 165.666C143.924 161.526 141.845 156.655 141.046 151.501C140.908 150.594 139.483 150.714 139.622 151.627Z" fill="#E6E6E6"/>
<path d="M180.411 187.782L191.045 181.654C191.135 181.591 191.209 181.508 191.262 181.412C191.315 181.315 191.345 181.208 191.35 181.098C191.355 180.989 191.335 180.879 191.292 180.778C191.248 180.677 191.181 180.588 191.098 180.517L180.149 172.585C179.408 172.048 178.484 173.141 179.231 173.682C182.88 176.325 186.53 178.969 190.179 181.613L190.232 180.476L179.598 186.604C178.8 187.064 179.618 188.239 180.411 187.782Z" fill="#E6E6E6"/>
<path d="M148.677 74.9382C149.757 67.9839 153.029 61.5568 158.016 56.5941C161.823 52.8721 166.485 50.1412 171.592 48.6408C176.699 47.1403 182.095 46.916 187.309 47.9875C188.2 48.1737 188.084 49.6009 187.184 49.4127C180.818 48.0934 174.2 48.7749 168.236 51.3641C163.472 53.4794 159.315 56.7577 156.147 60.8984C152.978 65.0392 150.9 69.9098 150.101 75.0635C149.963 75.9705 148.538 75.8506 148.677 74.9382Z" fill="#3F3D56"/>
<path d="M189.465 38.7827L200.099 44.9109C200.189 44.9739 200.264 45.0568 200.316 45.153C200.369 45.2493 200.4 45.3565 200.405 45.4663C200.41 45.5761 200.39 45.6857 200.346 45.7865C200.302 45.8873 200.236 45.9767 200.152 46.0479L189.204 53.9795C188.463 54.5163 187.539 53.4242 188.285 52.8832L199.234 44.9516L199.287 46.0887L188.653 39.9605C187.854 39.5003 188.673 38.3262 189.465 38.7827Z" fill="#3F3D56"/>
<path d="M91.9647 113.475C90.8844 120.429 87.6123 126.856 82.6257 131.819C78.8183 135.541 74.157 138.272 69.05 139.772C63.943 141.273 58.5463 141.497 53.3326 140.425C52.4416 140.239 52.5573 138.812 53.4577 139C59.8239 140.32 66.4419 139.638 72.4061 137.049C77.1698 134.934 81.3265 131.655 84.4949 127.514C87.6634 123.374 89.7421 118.503 90.5405 113.349C90.6788 112.442 92.1038 112.562 91.9647 113.475Z" fill="#E6E6E6"/>
<path d="M51.1764 149.63L40.5424 143.502C40.4524 143.439 40.3781 143.356 40.3251 143.26C40.2721 143.164 40.2419 143.056 40.2367 142.947C40.2316 142.837 40.2517 142.727 40.2955 142.626C40.3392 142.526 40.4055 142.436 40.4893 142.365L51.4377 134.433C52.1787 133.897 53.1031 134.989 52.3563 135.53L41.4078 143.461L41.3546 142.324L51.9886 148.452C52.7872 148.913 51.9686 150.087 51.1764 149.63Z" fill="#E6E6E6"/>
<path d="M6.98785 164.705C1.65952 155.531 -0.880208 145.678 0.274065 134.925C0.13886 134.323 0.24815 133.691 0.577965 133.168C0.907781 132.646 1.43118 132.276 2.03335 132.139L24.5078 127.065C25.1103 126.93 25.7418 127.039 26.2638 127.369C26.7858 127.699 27.1556 128.223 27.2922 128.826L34.006 158.606C34.1412 159.208 34.0319 159.84 33.7021 160.363C33.3722 160.885 32.8488 161.255 32.2467 161.392L9.77221 166.466C9.16974 166.601 8.53825 166.492 8.01626 166.162C7.49427 165.832 7.12442 165.308 6.98785 164.705Z" fill="#F2F2F2"/>
<path d="M6.68392 155.321C3.33508 151.018 2.52094 143.957 2.36771 136.176C2.24107 135.612 2.34342 135.02 2.65231 134.531C2.96119 134.041 3.45138 133.695 4.01533 133.567L23.3302 129.206C23.8945 129.079 24.4859 129.182 24.9748 129.491C25.4636 129.8 25.81 130.29 25.938 130.855L31.9123 157.355C32.0389 157.919 31.9365 158.511 31.6276 159.001C31.3187 159.49 30.8285 159.836 30.2646 159.964L18.2994 162.666C15.7861 163.23 13.1517 162.774 10.9741 161.397C8.79653 160.02 7.25364 157.835 6.68392 155.321Z" fill="white"/>
<path d="M16.7793 157.341C17.9042 157.341 18.8161 156.429 18.8161 155.303C18.8161 154.177 17.9042 153.265 16.7793 153.265C15.6543 153.265 14.7424 154.177 14.7424 155.303C14.7424 156.429 15.6543 157.341 16.7793 157.341Z" fill="#F2F2F2"/>
<path d="M19.2133 135.944C18.4294 135.025 16.9949 135.171 15.8082 135.397C14.5751 135.576 13.3715 135.919 12.2289 136.417C11.6584 136.669 11.1433 137.031 10.7135 137.483C10.2836 137.936 9.94749 138.468 9.72445 139.051C9.25037 140.506 9.76662 142.087 10.3858 143.486C11.578 146.177 13.1604 148.677 15.082 150.906L16.0529 151.356C17.5634 149.43 18.6736 147.221 19.3182 144.86C19.9628 142.498 20.1287 140.031 19.8061 137.605C19.7693 137.006 19.5637 136.431 19.2133 135.944Z" fill="#F2F2F2"/>
<path d="M16.7793 157.341C17.9042 157.341 18.8161 156.429 18.8161 155.303C18.8161 154.177 17.9042 153.265 16.7793 153.265C15.6543 153.265 14.7424 154.177 14.7424 155.303C14.7424 156.429 15.6543 157.341 16.7793 157.341Z" fill="#E6E6E6"/>
<path d="M19.2133 135.944C18.4294 135.025 16.9949 135.171 15.8082 135.397C14.5751 135.576 13.3715 135.919 12.2289 136.417C11.6584 136.669 11.1433 137.031 10.7135 137.483C10.2836 137.936 9.94749 138.468 9.72445 139.051C9.25037 140.506 9.76662 142.087 10.3858 143.486C11.578 146.177 13.1604 148.677 15.082 150.906L16.0529 151.356C17.5634 149.43 18.6736 147.221 19.3182 144.86C19.9628 142.498 20.1287 140.031 19.8061 137.605C19.7693 137.006 19.5637 136.431 19.2133 135.944Z" fill="#E6E6E6"/>
<path d="M300.04 253.691L294.57 253.691L291.968 232.578H300.041L300.04 253.691Z" fill="#A0616A"/>
<path d="M283.531 261.767C283.533 262.38 283.777 262.968 284.21 263.402C284.643 263.836 285.23 264.081 285.842 264.085H296.139L296.458 263.424L297.915 260.416L298.479 263.424L298.603 264.085H302.487L302.432 263.419L301.396 250.991L300.041 250.908L294.188 250.561L292.75 250.473V254.184C291.659 255.345 283.096 259.736 283.531 261.767Z" fill="#2F2E41"/>
<path d="M278.681 249.444L273.519 251.256L264.082 232.195L271.7 229.522L278.681 249.444Z" fill="#A0616A"/>
<path d="M265.773 262.533C265.978 263.111 266.403 263.584 266.955 263.85C267.507 264.117 268.141 264.154 268.721 263.955L278.437 260.545L278.52 259.815L278.899 256.495L280.426 259.146L280.763 259.729L284.428 258.443L284.155 257.832L279.068 246.448L277.762 246.818L272.124 248.429L270.738 248.822L271.965 252.324C271.319 253.781 264.691 260.76 265.773 262.533Z" fill="#2F2E41"/>
<path d="M274.428 84.6666L277.82 100.006L302.618 102.25L304.897 88.8943L274.428 84.6666Z" fill="#A0616A"/>
<path d="M304.274 95.444L276.368 94.9777L275.768 103.13L254.219 167.952L250.39 183.89L261.365 243.065L279.951 243.054C279.951 243.054 279.565 227.507 278.824 226.863C278.082 226.218 276.533 226.872 277.681 223.552C278.829 220.232 279.677 219.16 278.318 217.826C276.96 216.491 275.318 217.611 276.326 214.432C277.334 211.253 285.559 167.855 285.559 167.855V245.662H304.681C304.681 245.662 308.685 242.002 306.842 240.096C304.999 238.19 303.504 237.816 304.999 235.197C306.495 232.578 309.74 233.238 306.996 229.915C304.816 227.275 310.031 154.474 312.267 124.66C312.871 116.603 310.3 108.629 305.105 102.443L304.274 95.444Z" fill="#2F2E41"/>
<path d="M289.906 34.8401L302.249 34.2038L307.982 43.2692C307.982 43.2692 318.769 45.0739 318.021 57.794C317.274 70.5141 304.897 81.676 304.897 81.676L305.426 79.8609L304.507 82.4882L304.625 83.9635L305.878 85.5259L306.008 87.1416L304.897 89.6981L306.407 92.1459L274.654 89.0673L273.493 84.8345L275.187 82.5616L274.241 79.5968L275.663 76.7453L276.405 76.1266C276.405 76.1266 268.291 63.9275 277.605 54.7393L281.344 48.3793L285.527 43.2721L289.906 34.8401Z" fill="#38BDF8"/>
<path d="M292.978 29.4888C299.442 29.4888 304.683 24.2446 304.683 17.7757C304.683 11.3067 299.442 6.06262 292.978 6.06262C286.514 6.06262 281.273 11.3067 281.273 17.7757C281.273 24.2446 286.514 29.4888 292.978 29.4888Z" fill="#A0616A"/>
<path d="M301.868 34.6492C300.915 33.8522 300.251 32.7625 299.981 31.5494C299.764 33.0223 299.821 34.5226 300.147 35.975C299.514 36.4519 298.899 36.9049 298.317 37.3151C297.877 36.1823 297.273 35.1203 296.525 34.1628C296.454 35.6698 296.387 37.1815 296.321 38.6885C295.578 39.192 294.795 39.6338 293.981 40.0095L294.329 39.5946C296.826 35.913 290.364 29.1363 292.861 25.4594C293.561 24.4293 290.397 16.2886 287.986 15.9214C285.841 15.5971 285.932 16.2171 283.854 16.6701C283.638 15.7696 283.303 14.9019 282.858 14.0901C282.976 14.9947 282.949 15.9125 282.777 16.8084C282.038 16.8371 281.457 16.3661 280.67 16.2457C275.652 15.4779 276.162 10.0461 277.558 8.32443C278.959 6.6076 283.611 6.09254 285.755 5.53457C285.951 5.34381 286.394 5.46304 286.589 5.28182C290.699 1.51789 296.196 0.894551 301.142 2.56281C301.587 2.71623 302.018 2.90428 302.434 3.12524C306.632 5.32688 310.225 8.35724 309.965 13.0934C309.842 15.3117 309.339 15.657 309.965 16.9086C310.118 17.2157 308.773 20.1075 311.037 20.4156C313.3 20.7238 312.28 22.4725 312.824 23.1083C314.932 25.5712 307.377 32.7549 301.868 34.6492Z" fill="#2F2E41"/>
<path d="M195.891 197.56C193.435 187.237 193.845 177.07 198.05 167.108C198.095 166.492 198.382 165.918 198.848 165.513C199.314 165.109 199.922 164.905 200.538 164.948L223.52 166.58C224.136 166.625 224.709 166.912 225.113 167.378C225.518 167.845 225.721 168.454 225.678 169.07L223.519 199.522C223.474 200.138 223.187 200.711 222.721 201.116C222.255 201.521 221.647 201.724 221.031 201.681L198.049 200.05C197.433 200.005 196.86 199.718 196.456 199.251C196.051 198.785 195.848 198.176 195.891 197.56Z" fill="#F2F2F2"/>
<path d="M198.306 188.487C196.34 183.4 197.597 176.404 199.694 168.91C199.736 168.333 200.004 167.796 200.441 167.417C200.878 167.037 201.447 166.847 202.024 166.888L221.775 168.29C222.352 168.332 222.888 168.6 223.267 169.037C223.646 169.475 223.836 170.044 223.796 170.622L221.875 197.719C221.833 198.297 221.565 198.834 221.128 199.213C220.691 199.592 220.122 199.783 219.545 199.742L207.31 198.873C204.74 198.688 202.35 197.491 200.662 195.543C198.974 193.596 198.127 191.059 198.306 188.487Z" fill="white"/>
<path d="M207.977 193.423C209.102 193.423 210.014 192.511 210.014 191.385C210.014 190.259 209.102 189.347 207.977 189.347C206.852 189.347 205.94 190.259 205.94 191.385C205.94 192.511 206.852 193.423 207.977 193.423Z" fill="#F2F2F2"/>
<path d="M215.89 173.553C215.405 172.446 213.989 172.171 212.788 172.045C211.555 171.861 210.304 171.842 209.066 171.988C208.448 172.065 207.85 172.263 207.308 172.572C206.766 172.881 206.29 173.294 205.909 173.787C205.035 175.043 205.074 176.706 205.263 178.224C205.629 181.145 206.423 183.996 207.62 186.685L208.42 187.396C210.422 185.988 212.121 184.194 213.42 182.119C214.718 180.044 215.588 177.73 215.979 175.314C216.116 174.73 216.085 174.12 215.89 173.553Z" fill="#F2F2F2"/>
<path d="M318.934 90.1426L318.474 54.2288C318.45 52.7073 317.829 51.2563 316.745 50.1889C315.661 49.1214 314.202 48.5231 312.681 48.5231C311.894 48.5231 311.116 48.6835 310.393 48.9943C309.671 49.3052 309.019 49.7601 308.477 50.3313C307.936 50.9025 307.517 51.578 307.245 52.3167C306.973 53.0554 306.854 53.8418 306.896 54.6279L308.518 91.9188L308.548 114.62C307.593 115.025 306.785 115.716 306.235 116.596C305.685 117.477 305.419 118.507 305.474 119.544C305.528 120.581 305.901 121.577 306.541 122.395C307.18 123.213 308.056 123.814 309.049 124.117C310.042 124.419 311.104 124.409 312.091 124.086C313.078 123.764 313.942 123.145 314.565 122.315C315.188 121.484 315.541 120.481 315.575 119.443C315.609 118.405 315.323 117.381 314.755 116.511L318.934 90.1426Z" fill="#A0616A"/>
<path d="M349.562 264.511H333.746L333.678 264.388C333.476 264.021 333.281 263.632 333.098 263.232C331.469 259.742 330.781 255.75 330.173 252.229L329.716 249.574C329.66 249.253 329.702 248.922 329.835 248.624C329.969 248.327 330.188 248.076 330.465 247.903C330.742 247.731 331.064 247.646 331.39 247.658C331.716 247.67 332.03 247.779 332.294 247.971C334.697 249.721 337.102 251.469 339.507 253.216C340.418 253.879 341.458 254.647 342.454 255.476C342.55 255.009 342.651 254.541 342.751 254.079C342.821 253.76 342.984 253.469 343.219 253.243C343.455 253.017 343.752 252.867 344.074 252.811C344.395 252.755 344.726 252.797 345.024 252.93C345.321 253.064 345.572 253.283 345.745 253.561L347.595 256.536C348.945 258.708 350.136 260.849 349.893 263.158C349.894 263.186 349.892 263.214 349.887 263.242C349.838 263.621 349.748 263.994 349.618 264.354L349.562 264.511Z" fill="#F0F0F0"/>
<path d="M365.436 264.853L215.149 265C214.999 264.999 214.855 264.939 214.749 264.833C214.643 264.726 214.584 264.582 214.584 264.432C214.584 264.282 214.643 264.138 214.749 264.032C214.855 263.925 214.999 263.865 215.149 263.864L365.436 263.718C365.586 263.719 365.729 263.779 365.835 263.885C365.94 263.992 366 264.136 366 264.286C366 264.436 365.94 264.58 365.835 264.686C365.729 264.792 365.586 264.853 365.436 264.853Z" fill="#CACACA"/>
</g>
<defs>
<clipPath id="clip0_12_282">
<rect width="366" height="265" fill="white"/>
</clipPath>
</defs>
</svg>
