<svg width="67" height="67" viewBox="0 0 67 67" fill="none" xmlns="http://www.w3.org/2000/svg">
<g clip-path="url(#clip0_7_279)">
<path d="M54.4375 67C53.6004 67.0001 52.7825 66.7494 52.0893 66.2802C51.3962 65.8109 50.8595 65.1447 50.5487 64.3675L48.8039 60.0208L44.4377 58.1783C43.6665 57.8534 43.0103 57.3047 42.5538 56.6032C42.0974 55.9017 41.8616 55.0795 41.8769 54.2427C41.8923 53.4059 42.158 52.5929 42.6398 51.9086C43.1216 51.2243 43.7975 50.7001 44.5801 50.4035L48.8402 48.7928L50.5487 44.5187C50.8695 43.7519 51.4098 43.0971 52.1018 42.6365C52.7937 42.176 53.6063 41.9303 54.4375 41.9303C55.2687 41.9303 56.0813 42.176 56.7732 42.6365C57.4652 43.0971 58.0055 43.7519 58.3263 44.5187L60.0543 48.8346L64.3674 50.5599C65.1342 50.8807 65.7891 51.421 66.2496 52.1129C66.7102 52.8048 66.9559 53.6175 66.9559 54.4487C66.9559 55.2799 66.7102 56.0925 66.2496 56.7844C65.7891 57.4763 65.1342 58.0167 64.3674 58.3375L60.0543 60.0627L58.3263 64.3786C58.0137 65.1538 57.4763 65.8176 56.7833 66.2848C56.0903 66.7519 55.2733 67.001 54.4375 67ZM27.9167 58.625C26.4512 58.6291 25.0228 58.1654 23.8393 57.3012C22.6557 56.437 21.779 55.2176 21.3367 53.8205L17.3083 41.2636L4.71512 37.0454C3.32667 36.5802 2.12193 35.6858 1.27474 34.4915C0.427554 33.2971 -0.0182651 31.8644 0.00161359 30.4003C0.0214923 28.9361 0.506041 27.516 1.38534 26.3451C2.26464 25.1742 3.49321 24.3129 4.89379 23.8855L17.3725 20.0749L21.5796 7.51237C22.0293 6.11385 22.9194 4.89837 24.1169 4.04751C25.3144 3.19665 26.7551 2.7561 28.2237 2.79166C29.6892 2.80798 31.1112 3.29135 32.2831 4.17148C33.4549 5.05161 34.3154 6.28261 34.7395 7.68546L38.5417 20.1279L51.0289 24.1284C52.4052 24.5936 53.601 25.4786 54.4479 26.659C55.2949 27.8393 55.7505 29.2555 55.7505 30.7083C55.7505 32.1611 55.2949 33.5773 54.4479 34.7577C53.601 35.938 52.4052 36.8231 51.0289 37.2883L38.5055 41.2971L34.4966 53.8205C34.0543 55.2176 33.1776 56.437 31.9941 57.3012C30.8106 58.1654 29.3821 58.6291 27.9167 58.625ZM11.725 30.5576L21.9927 33.9941C22.6169 34.2029 23.1831 34.5559 23.6454 35.0245C24.1076 35.493 24.4529 36.0639 24.6532 36.6909L27.9167 46.9L31.1857 36.6853C31.389 36.0495 31.7413 35.4714 32.2133 34.9994C32.6853 34.5274 33.2634 34.1751 33.8992 33.9718L44.1083 30.7083L33.8908 27.4393C33.246 27.2332 32.6608 26.8738 32.1853 26.392C31.7098 25.9102 31.3582 25.3202 31.1606 24.6727L28.0674 14.5167L24.6309 24.7788C24.4187 25.4114 24.0585 25.9842 23.5802 26.4494C23.1019 26.9146 22.5193 27.2588 21.8811 27.4532L11.725 30.5576ZM49.5688 12.5625L53.3515 13.6429L54.4375 17.4312C54.6142 18.0347 54.9818 18.5647 55.4851 18.9417C55.9884 19.3187 56.6003 19.5225 57.2292 19.5225C57.858 19.5225 58.4699 19.3187 58.9732 18.9417C59.4765 18.5647 59.8441 18.0347 60.0208 17.4312L61.1012 13.6485L64.8895 12.5625C65.493 12.3858 66.023 12.0182 66.4 11.5149C66.7771 11.0116 66.9809 10.3997 66.9809 9.77083C66.9809 9.14197 66.7771 8.53005 66.4 8.02676C66.023 7.52346 65.493 7.15591 64.8895 6.97916L61.1068 5.89879L60.0208 2.1105C59.8441 1.50699 59.4765 0.977002 58.9732 0.599963C58.4699 0.222923 57.858 0.0191345 57.2292 0.0191345C56.6003 0.0191345 55.9884 0.222923 55.4851 0.599963C54.9818 0.977002 54.6142 1.50699 54.4375 2.1105L53.3571 5.89321L49.5688 6.97916C48.9653 7.15591 48.4353 7.52346 48.0583 8.02676C47.6813 8.53005 47.4775 9.14197 47.4775 9.77083C47.4775 10.3997 47.6813 11.0116 48.0583 11.5149C48.4353 12.0182 48.9653 12.3858 49.5688 12.5625Z" fill="url(#paint0_linear_7_279)"/>
</g>
<defs>
<linearGradient id="paint0_linear_7_279" x1="33.4909" y1="0.0191345" x2="33.4909" y2="67" gradientUnits="userSpaceOnUse">
<stop offset="0.182692" stop-color="#B56DD9"/>
<stop offset="0.317308" stop-color="#BD299D"/>
<stop offset="0.620192" stop-color="#82C0FF"/>
</linearGradient>
<clipPath id="clip0_7_279">
<rect width="67" height="67" fill="white"/>
</clipPath>
</defs>
</svg>
