<svg width="30" height="30" viewBox="0 0 30 30" fill="none" xmlns="http://www.w3.org/2000/svg">
<g clip-path="url(#clip0_126_981)">
<path d="M13.1252 7.5H16.8752V16.3612H13.1252V7.5ZM13.1252 22.5H16.8752V18.75H13.1252V22.5ZM28.7115 18.0875L18.0927 28.705C17.2665 29.5312 16.1677 29.9862 14.999 29.9862C13.8302 29.9862 12.7315 29.5312 11.9052 28.705L1.28896 18.0875C-0.417285 16.3825 -0.417285 13.605 1.28896 11.9L11.9065 1.28125C13.5577 -0.371255 16.4402 -0.371255 18.094 1.28125L28.7115 11.8987C30.4177 13.6037 30.4177 16.3812 28.7115 18.0862V18.0875ZM26.0602 14.5512L15.4427 3.9325C15.284 3.7725 15.0977 3.75 15.0002 3.75C14.9027 3.75 14.7177 3.77375 14.559 3.9325L3.94021 14.5512C3.69646 14.795 3.69646 15.1925 3.94021 15.4362L14.559 26.0537C14.7177 26.2137 14.904 26.2362 15.0015 26.2362C15.099 26.2362 15.284 26.2125 15.4427 26.0537L26.0615 15.4362C26.3052 15.1925 26.3052 14.795 26.0615 14.5512H26.0602Z" fill="#F0D768"/>
</g>
<defs>
<clipPath id="clip0_126_981">
<rect width="30" height="30" fill="white"/>
</clipPath>
</defs>
</svg>
