<svg width="20" height="20" viewBox="0 0 20 20" fill="none" xmlns="http://www.w3.org/2000/svg">
<g clip-path="url(#clip0_135_1003)">
<path d="M15.7498 13.98C17.0803 12.202 17.6878 9.98605 17.4501 7.77815C17.2124 5.57025 16.1471 3.53436 14.4687 2.0803C12.7903 0.626244 10.6234 -0.138023 8.40416 -0.0586537C6.18492 0.0207153 4.07813 0.937827 2.50789 2.50807C0.937644 4.07831 0.0205322 6.1851 -0.0588368 8.40434C-0.138206 10.6236 0.626061 12.7905 2.08012 14.4689C3.53418 16.1473 5.57007 17.2126 7.77797 17.4503C9.98587 17.688 12.2018 17.0805 13.9798 15.75L18.2298 20L19.9998 18.2333L15.7498 13.98ZM8.74983 15C7.5137 15 6.30533 14.6335 5.27752 13.9467C4.24971 13.2599 3.44863 12.2838 2.97559 11.1418C2.50254 9.99975 2.37877 8.74308 2.61993 7.5307C2.86108 6.31832 3.45634 5.20468 4.33042 4.3306C5.20449 3.45652 6.31814 2.86127 7.53052 2.62011C8.7429 2.37895 9.99957 2.50272 11.1416 2.97577C12.2836 3.44882 13.2598 4.2499 13.9465 5.2777C14.6333 6.30551 14.9998 7.51388 14.9998 8.75002C14.9983 10.4071 14.3393 11.996 13.1675 13.1677C11.9958 14.3395 10.407 14.9985 8.74983 15Z" fill="#284167"/>
</g>
<defs>
<clipPath id="clip0_135_1003">
<rect width="20" height="20" fill="white"/>
</clipPath>
</defs>
</svg>
