<svg width="20" height="20" viewBox="0 0 20 20" fill="none" xmlns="http://www.w3.org/2000/svg">
<g clip-path="url(#clip0_88_851)">
<path d="M13.9775 2.41664C13.355 1.88831 12.7025 1.33331 12.0383 0.729977C11.7358 0.454044 11.3764 0.247949 10.9854 0.126269C10.5944 0.00458777 10.1815 -0.0297067 9.77584 0.0258107C9.38124 0.0774209 9.00278 0.214989 8.66714 0.42881C8.33151 0.642632 8.04688 0.927497 7.83334 1.26331C7.04169 2.56377 6.44479 3.97317 6.06167 5.44664C5.87974 5.20473 5.64644 5.00614 5.37858 4.86517C5.11072 4.7242 4.81494 4.64434 4.51252 4.63135C4.21011 4.61837 3.90857 4.67256 3.6296 4.79005C3.35064 4.90753 3.10118 5.08538 2.89917 5.31081C1.48656 6.75544 0.704407 8.70124 0.724171 10.7216C0.70539 12.7721 1.37315 14.7699 2.62114 16.3969C3.86913 18.024 5.62558 19.1867 7.61084 19.7C8.38902 19.8979 9.18872 19.9987 9.99167 20C11.2101 20.0016 12.417 19.763 13.5431 19.2977C14.6693 18.8325 15.6926 18.1498 16.5546 17.2886C17.4166 16.4274 18.1004 15.4047 18.5668 14.2791C19.0331 13.1534 19.2729 11.9468 19.2725 10.7283C19.2725 6.91664 16.8192 4.83331 13.9775 2.41664ZM14.1592 16.0716C13.9208 16.2551 13.6702 16.4221 13.4092 16.5716C13.6483 16.0723 13.7735 15.5261 13.7758 14.9725C13.7758 13.3666 12.6567 11.5025 11.2758 9.86831C11.1174 9.68292 10.9207 9.53406 10.6992 9.43199C10.4777 9.32992 10.2368 9.27707 9.99292 9.27707C9.74906 9.27707 9.50809 9.32992 9.28662 9.43199C9.06515 9.53406 8.86843 9.68292 8.71 9.86831C6.75 12.1666 5.5225 14.6516 6.66667 16.6666C5.61444 16.0748 4.74017 15.2117 4.13499 14.1671C3.52981 13.1225 3.21585 11.9347 3.22584 10.7275C3.19999 9.54516 3.5975 8.39252 4.34667 7.47748C4.46445 7.67081 4.59084 7.85776 4.72584 8.03831C4.94879 8.33934 5.25507 8.56845 5.60681 8.6973C5.95856 8.82615 6.34035 8.8491 6.705 8.76331C7.07491 8.68083 7.41317 8.4934 7.67923 8.22351C7.94528 7.95361 8.12784 7.61269 8.205 7.24164C8.51298 5.60607 9.10257 4.03637 9.9475 2.60248C9.96484 2.574 9.98853 2.54993 10.0167 2.53215C10.0449 2.51437 10.0768 2.50335 10.11 2.49998C10.1542 2.49422 10.199 2.49818 10.2415 2.51156C10.2839 2.52495 10.323 2.54744 10.3558 2.57748C11.0425 3.20164 11.7167 3.77498 12.36 4.31998C15.0175 6.57664 16.7725 8.06998 16.7725 10.725C16.7759 11.7571 16.542 12.7762 16.0889 13.7036C15.6357 14.6309 14.9755 15.4417 14.1592 16.0733V16.0716Z" fill="url(#paint0_linear_88_851)"/>
</g>
<defs>
<linearGradient id="paint0_linear_88_851" x1="9.99815" y1="0" x2="9.99815" y2="20" gradientUnits="userSpaceOnUse">
<stop stop-color="#BD299D"/>
<stop offset="1" stop-color="#82C0FF"/>
</linearGradient>
<clipPath id="clip0_88_851">
<rect width="20" height="20" fill="white"/>
</clipPath>
</defs>
</svg>
