<svg width="19" height="20" viewBox="0 0 19 20" fill="none" xmlns="http://www.w3.org/2000/svg">
<path d="M13.2537 2.41664C12.6312 1.88831 11.9787 1.33331 11.3146 0.729977C11.012 0.454044 10.6526 0.247949 10.2616 0.126269C9.87066 0.00458777 9.45773 -0.0297067 9.05205 0.0258107C8.65746 0.0774209 8.27899 0.214989 7.94336 0.42881C7.60772 0.642632 7.32309 0.927497 7.10955 1.26331C6.3179 2.56377 5.72101 3.97317 5.33789 5.44664C5.15595 5.20473 4.92266 5.00614 4.6548 4.86517C4.38693 4.7242 4.09115 4.64434 3.78874 4.63135C3.48632 4.61837 3.18478 4.67256 2.90582 4.79005C2.62685 4.90753 2.37739 5.08538 2.17539 5.31081C0.762779 6.75544 -0.0193788 8.70124 0.000385618 10.7216C-0.0183958 12.7721 0.649369 14.7699 1.89736 16.3969C3.14534 18.024 4.9018 19.1867 6.88705 19.7C7.66523 19.8979 8.46493 19.9987 9.26789 20C10.4864 20.0016 11.6932 19.763 12.8193 19.2977C13.9455 18.8325 14.9688 18.1498 15.8308 17.2886C16.6929 16.4274 17.3766 15.4047 17.843 14.2791C18.3093 13.1534 18.5492 11.9468 18.5487 10.7283C18.5487 6.91664 16.0954 4.83331 13.2537 2.41664ZM13.4354 16.0716C13.197 16.2551 12.9464 16.4221 12.6854 16.5716C12.9245 16.0723 13.0498 15.5261 13.0521 14.9725C13.0521 13.3666 11.9329 11.5025 10.5521 9.86831C10.3936 9.68292 10.1969 9.53406 9.97544 9.43199C9.75396 9.32992 9.513 9.27707 9.26914 9.27707C9.02527 9.27707 8.78431 9.32992 8.56284 9.43199C8.34136 9.53406 8.14464 9.68292 7.98622 9.86831C6.02622 12.1666 4.79872 14.6516 5.94289 16.6666C4.89065 16.0748 4.01639 15.2117 3.4112 14.1671C2.80602 13.1225 2.49206 11.9347 2.50205 10.7275C2.4762 9.54516 2.87371 8.39252 3.62289 7.47748C3.74066 7.67081 3.86705 7.85776 4.00205 8.03831C4.225 8.33934 4.53128 8.56845 4.88303 8.6973C5.23478 8.82615 5.61657 8.8491 5.98122 8.76331C6.35112 8.68083 6.68938 8.4934 6.95544 8.22351C7.2215 7.95361 7.40405 7.61269 7.48122 7.24164C7.78919 5.60607 8.37878 4.03637 9.22372 2.60248C9.24105 2.574 9.26474 2.54993 9.29294 2.53215C9.32113 2.51437 9.35306 2.50335 9.38622 2.49998C9.43037 2.49422 9.47524 2.49818 9.5177 2.51156C9.56016 2.52495 9.59919 2.54744 9.63205 2.57748C10.3187 3.20164 10.9929 3.77498 11.6362 4.31998C14.2937 6.57664 16.0487 8.06998 16.0487 10.725C16.0521 11.7571 15.8182 12.7762 15.3651 13.7036C14.912 14.6309 14.2517 15.4417 13.4354 16.0733V16.0716Z" fill="#C9C3C8"/>
</svg>
