<svg width="29" height="30" viewBox="0 0 29 30" fill="none" xmlns="http://www.w3.org/2000/svg">
<g clip-path="url(#clip0_78_800)">
<path d="M18.75 28.75C18.75 29.44 18.1912 30 17.5 30H6.25C2.80375 30 0 27.1963 0 23.75V6.25C0 2.80375 2.80375 0 6.25 0H11.8938C14.23 0 16.4275 0.91 18.0812 2.5625L22.4362 6.92C22.775 7.25875 23.09 7.63 23.3713 8.02375C23.7725 8.585 23.6425 9.36625 23.0812 9.7675C22.52 10.1675 21.7375 10.0387 21.3375 9.47625C21.1362 9.195 20.9112 8.92875 20.67 8.68875L16.3137 4.33125C15.9162 3.93375 15.475 3.5975 15 3.325V8.75C15 9.43875 15.56 10 16.25 10H20C20.6912 10 21.25 10.56 21.25 11.25C21.25 11.94 20.6912 12.5 20 12.5H16.25C14.1825 12.5 12.5 10.8175 12.5 8.75V2.52875C12.3 2.51 12.0975 2.5 11.8938 2.5H6.25C4.1825 2.5 2.5 4.1825 2.5 6.25V23.75C2.5 25.8175 4.1825 27.5 6.25 27.5H17.5C18.1912 27.5 18.75 28.06 18.75 28.75ZM25.8562 20.3337L22.055 19.7C21.5887 19.6225 21.25 19.2225 21.25 18.75C21.25 18.0613 21.81 17.5 22.5 17.5H25.335C25.78 17.5 26.195 17.74 26.4188 18.125C26.7625 18.7225 27.525 18.9263 28.1262 18.5812C28.7237 18.235 28.9287 17.4712 28.5812 16.8737C27.9137 15.7175 26.6688 14.9987 25.3337 14.9987H24.9988V13.7487C24.9988 13.0587 24.44 12.4987 23.7488 12.4987C23.0575 12.4987 22.4988 13.0587 22.4988 13.7487V14.9987C20.4313 14.9987 18.7487 16.6812 18.7487 18.7487C18.7487 20.4487 19.9662 21.8862 21.6425 22.165L25.4437 22.7987C25.91 22.8763 26.2488 23.2763 26.2488 23.7488C26.2488 24.4375 25.6888 24.9988 24.9988 24.9988H22.1638C21.7188 24.9988 21.3038 24.7588 21.08 24.3738C20.7362 23.775 19.9725 23.5713 19.3725 23.9175C18.775 24.2638 18.57 25.0275 18.9175 25.625C19.585 26.7812 20.83 27.4988 22.165 27.4988H22.5V28.7488C22.5 29.4388 23.0588 29.9988 23.75 29.9988C24.4412 29.9988 25 29.4388 25 28.7488V27.4988C27.0675 27.4988 28.75 25.8162 28.75 23.7488C28.75 22.0487 27.5325 20.6125 25.8562 20.3337ZM8.125 18.75H15C15.6912 18.75 16.25 18.19 16.25 17.5C16.25 16.81 15.6912 16.25 15 16.25H8.125C6.4025 16.25 5 17.6525 5 19.375V21.875C5 23.5975 6.4025 25 8.125 25H15C15.6912 25 16.25 24.44 16.25 23.75C16.25 23.06 15.6912 22.5 15 22.5H8.125C7.78 22.5 7.5 22.22 7.5 21.875V19.375C7.5 19.03 7.78 18.75 8.125 18.75ZM6.25 13.75H8.75C9.44 13.75 10 13.19 10 12.5C10 11.81 9.44 11.25 8.75 11.25H6.25C5.56 11.25 5 11.81 5 12.5C5 13.19 5.56 13.75 6.25 13.75ZM6.25 8.75H8.75C9.44 8.75 10 8.19 10 7.5C10 6.81 9.44 6.25 8.75 6.25H6.25C5.56 6.25 5 6.81 5 7.5C5 8.19 5.56 8.75 6.25 8.75Z" fill="#1A365D"/>
</g>
<defs>
<clipPath id="clip0_78_800">
<rect width="28.7505" height="30" fill="white"/>
</clipPath>
</defs>
</svg>
