<svg width="31" height="30" viewBox="0 0 31 30" fill="none" xmlns="http://www.w3.org/2000/svg">
<g clip-path="url(#clip0_80_804)">
<path d="M28.2505 7.16062V2.50562C28.2505 1.81562 27.6917 1.25563 27.0005 1.25563C26.3092 1.25563 25.7505 1.81562 25.7505 2.50562V5.46313L19.2467 1.07438C17.123 -0.358125 14.378 -0.358125 12.2542 1.07438L3.50424 6.97937C1.78049 8.14312 0.750488 10.0794 0.750488 12.1606V23.7556C0.750488 27.2019 3.55424 30.0056 7.00049 30.0056H10.7505C11.4417 30.0056 12.0005 29.4456 12.0005 28.7556V18.7556C12.0005 18.0669 12.5605 17.5056 13.2505 17.5056H18.2505C18.9405 17.5056 19.5005 18.0669 19.5005 18.7556V28.7556C19.5005 29.4456 20.0592 30.0056 20.7505 30.0056H24.5005C27.9467 30.0056 30.7505 27.2019 30.7505 23.7556V12.1606C30.7505 10.1844 29.8205 8.33813 28.2505 7.16062ZM28.2505 23.7556C28.2505 25.8231 26.568 27.5056 24.5005 27.5056H22.0005V18.7556C22.0005 16.6881 20.318 15.0056 18.2505 15.0056H13.2505C11.183 15.0056 9.50049 16.6881 9.50049 18.7556V27.5056H7.00049C4.93299 27.5056 3.25049 25.8231 3.25049 23.7556V12.1606C3.25049 10.9119 3.86799 9.74938 4.90299 9.05188L13.653 3.14687C14.928 2.28687 16.573 2.28687 17.8467 3.14687L26.5967 9.05188C27.6317 9.74938 28.2492 10.9119 28.2492 12.1606L28.2505 23.7556Z" fill="#1A365D"/>
</g>
<defs>
<clipPath id="clip0_80_804">
<rect width="30" height="30.0056" fill="white" transform="translate(0.750488)"/>
</clipPath>
</defs>
</svg>
