<svg width="30" height="30" viewBox="0 0 30 30" fill="none" xmlns="http://www.w3.org/2000/svg">
<g clip-path="url(#clip0_135_1005)">
<path d="M13.3337 9.9525C14.05 10.7013 14.0238 11.8875 13.2763 12.6038L11.5737 14.235C11.0637 14.745 10.3837 15.0025 9.69875 15.0025C9.00375 15.0025 8.305 14.7387 7.77375 14.2062C7.74125 14.175 6.81125 13.1012 6.81125 13.1012C6.13375 12.3175 6.22 11.1337 7.00375 10.4562C7.7875 9.78 8.97125 9.865 9.64875 10.6488L9.76125 10.7788L10.6825 9.895C11.4312 9.17875 12.6163 9.2025 13.3337 9.9525ZM10.6825 17.3962L9.67625 18.36L9.39875 18.1038C8.63875 17.4 7.45125 17.445 6.74875 18.205C6.045 18.9638 6.09 20.1513 6.85 20.855L7.77125 21.7062C8.2825 22.2188 8.96375 22.5012 9.6875 22.5012C10.4113 22.5012 11.0925 22.2188 11.5737 21.7362L13.2763 20.105C14.0238 19.39 14.05 18.2025 13.3337 17.455C12.6163 16.7062 11.4312 16.6812 10.6825 17.3975V17.3962ZM30 21.25V26.25C30 28.3212 28.3212 30 26.25 30H20C17.9288 30 16.25 28.3212 16.25 26.25V21.25C16.25 19.1788 17.9288 17.5 20 17.5H26.25C28.3212 17.5 30 19.1788 30 21.25ZM25.625 22.5C25.625 21.81 25.065 21.25 24.375 21.25H21.875C21.185 21.25 20.625 21.81 20.625 22.5C20.625 23.19 21.185 23.75 21.875 23.75H24.375C25.065 23.75 25.625 23.19 25.625 22.5ZM16.875 6.25H18.125C19.8487 6.25 21.25 7.6525 21.25 9.375V13.125C21.25 14.1613 22.09 15 23.125 15C24.16 15 25 14.1613 25 13.125V9.375C25 5.6525 22.0263 2.61125 18.3288 2.5025C17.6262 1.02375 16.1175 0 14.375 0H10.625C8.88125 0 7.37375 1.02375 6.67125 2.5025C2.97375 2.61 0 5.6525 0 9.375V23.125C0 26.915 3.08375 30 6.875 30H11.875C12.9113 30 13.75 29.16 13.75 28.125C13.75 27.09 12.9113 26.25 11.875 26.25H6.875C5.1525 26.25 3.75 24.8487 3.75 23.125V9.375C3.75 7.6525 5.1525 6.25 6.875 6.25H8.125C9.16125 6.25 10 5.41125 10 4.375C10 4.03 10.28 3.75 10.625 3.75H14.375C14.72 3.75 15 4.03 15 4.375C15 5.41125 15.8387 6.25 16.875 6.25ZM18.8538 13.125C18.8538 12.0887 18.0138 11.25 16.9788 11.25H16.875C15.8387 11.25 15.0525 12.0887 15.0525 13.125C15.0525 14.1613 15.9437 15 16.98 15C18.0162 15 18.8538 14.1613 18.8538 13.125Z" fill="#1A365D"/>
</g>
<defs>
<clipPath id="clip0_135_1005">
<rect width="30" height="30" fill="white"/>
</clipPath>
</defs>
</svg>
