<svg width="30" height="30" viewBox="0 0 30 30" fill="none" xmlns="http://www.w3.org/2000/svg">
<path d="M21.25 19C20.56 19 20 19.448 20 20V21H17.5V20C17.5 19.448 16.94 19 16.25 19C15.56 19 15 19.448 15 20V25H7.5V14C7.5 13.448 6.94 13 6.25 13H5.625C2.52375 13 0 15.019 0 17.5V22.5C0 24.981 2.52375 27 5.625 27H16.875C19.9762 27 22.5 24.981 22.5 22.5V20C22.5 19.448 21.94 19 21.25 19ZM5 19V21H2.5V19H5ZM5 15.05V17H2.56875C2.81875 16.023 3.77875 15.25 5 15.05ZM2.56875 23H5V24.95C3.7775 24.751 2.81875 23.978 2.56875 23ZM17.5 24.949V23H19.9363C19.6875 23.978 18.7225 24.75 17.5 24.949ZM23.75 3H16.25C12.8038 3 10 5.243 10 8V12C10 14.757 12.8038 17 16.25 17H23.75C27.1963 17 30 14.757 30 12V8C30 5.243 27.1963 3 23.75 3ZM12.5 8C12.5 6.346 14.1825 5 16.25 5H23.75C25.1838 5 26.4175 5.654 27.0475 6.602L22.7262 10.066L22.1325 9.586C21.2125 8.849 19.7625 8.797 18.7513 9.473L12.975 13.434C12.6813 13.006 12.4987 12.523 12.4987 12.001V8H12.5ZM23.75 15H16.25C15.7563 15 15.2863 14.919 14.8538 14.779L20.3612 10.995L20.955 11.475C21.9287 12.255 23.5163 12.256 24.4913 11.475L27.5012 9.067V11.999C27.5012 13.653 25.8187 14.999 23.7512 14.999L23.75 15ZM13.75 7.5C13.75 6.672 14.59 6 15.625 6C16.66 6 17.5 6.672 17.5 7.5C17.5 8.328 16.66 9 15.625 9C14.59 9 13.75 8.328 13.75 7.5Z" fill="#1A365D"/>
</svg>
