<svg width="30" height="30" viewBox="0 0 30 30" fill="none" xmlns="http://www.w3.org/2000/svg">
<path d="M12.1255 13.125C12.1255 11.4012 13.5267 10 15.2505 10C16.9742 10 18.3755 11.4012 18.3755 13.125C18.3755 14.8488 16.9742 16.25 15.2505 16.25C13.5267 16.25 12.1255 14.8488 12.1255 13.125ZM15.2505 17.5C12.3517 17.5 9.74049 19.4713 9.03924 22.1875C8.94299 22.5613 9.02549 22.96 9.26299 23.265C9.49924 23.57 9.86299 23.7488 10.2505 23.7488H20.2505C20.638 23.7488 21.0017 23.57 21.238 23.265C21.4742 22.9587 21.558 22.5613 21.4617 22.1875C20.7605 19.4713 18.1505 17.5 15.2505 17.5ZM27.7505 9.375V23.125C27.7505 26.9163 24.6667 30 20.8755 30H9.62549C5.83424 30 2.75049 26.9163 2.75049 23.125V9.375C2.75049 5.6525 5.72424 2.61125 9.42174 2.5025C10.1242 1.02375 11.633 0 13.3755 0H17.1255C18.8692 0 20.3767 1.02375 21.0792 2.5025C24.7767 2.61 27.7505 5.6525 27.7505 9.375ZM24.0005 9.375C24.0005 7.6525 22.598 6.25 20.8755 6.25H19.6255C18.5892 6.25 17.7505 5.41125 17.7505 4.375C17.7505 4.03 17.4705 3.75 17.1255 3.75H13.3755C13.0305 3.75 12.7505 4.03 12.7505 4.375C12.7505 5.41125 11.9117 6.25 10.8755 6.25H9.62549C7.90299 6.25 6.50049 7.6525 6.50049 9.375V23.125C6.50049 24.8475 7.90299 26.25 9.62549 26.25H20.8755C22.598 26.25 24.0005 24.8475 24.0005 23.125V9.375Z" fill="#1A365D"/>
</svg>
