<svg width="31" height="30" viewBox="0 0 31 30" fill="none" xmlns="http://www.w3.org/2000/svg">
<g clip-path="url(#clip0_80_808)">
<path d="M13.2505 22.5C13.2505 21.1187 14.3692 20 15.7505 20C17.1317 20 18.2505 21.1187 18.2505 22.5C18.2505 23.8813 17.1317 25 15.7505 25C14.3692 25 13.2505 23.8813 13.2505 22.5ZM2.62549 22.5C2.62549 23.8813 3.74424 25 5.12549 25C6.50674 25 7.62549 23.8813 7.62549 22.5C7.62549 21.1187 6.50674 20 5.12549 20C3.74424 20 2.62549 21.1187 2.62549 22.5ZM4.50049 11.875C4.50049 11.5312 4.78049 11.25 5.12549 11.25H8.25049V18.75H12.0005V11.25H19.5005V7.5H5.12549C2.71299 7.5 0.750488 9.4625 0.750488 11.875V18.75H4.50049V11.875ZM6.37549 6.25C8.10174 6.25 9.50049 4.85125 9.50049 3.125C9.50049 1.39875 8.10174 0 6.37549 0C4.64924 0 3.25049 1.39875 3.25049 3.125C3.25049 4.85125 4.64924 6.25 6.37549 6.25ZM7.00049 26.25H3.25049C1.86924 26.25 0.750488 27.3687 0.750488 28.75V30H9.50049V28.75C9.50049 27.3687 8.38174 26.25 7.00049 26.25ZM26.3755 25C27.7567 25 28.8755 23.8813 28.8755 22.5C28.8755 21.1187 27.7567 20 26.3755 20C24.9942 20 23.8755 21.1187 23.8755 22.5C23.8755 23.8813 24.9942 25 26.3755 25ZM26.3755 0H11.0505C11.6492 0.89375 12.0005 1.96875 12.0005 3.125C12.0005 3.33875 11.9605 3.5425 11.938 3.75H26.3755C26.7205 3.75 27.0005 4.03125 27.0005 4.375V15H24.5005V12.5H19.5005V15H14.5005V18.75H30.7505V4.375C30.7505 1.9625 28.788 0 26.3755 0ZM28.2505 26.25H24.5005C23.1192 26.25 22.0005 27.3687 22.0005 28.75V30H30.7505V28.75C30.7505 27.3687 29.6317 26.25 28.2505 26.25ZM17.6255 26.25H13.8755C12.4942 26.25 11.3755 27.3687 11.3755 28.75V30H20.1255V28.75C20.1255 27.3687 19.0067 26.25 17.6255 26.25Z" fill="#1A365D"/>
</g>
<defs>
<clipPath id="clip0_80_808">
<rect width="30" height="30" fill="white" transform="translate(0.750488)"/>
</clipPath>
</defs>
</svg>
